<svg id="svg-source" height="0" version="1.1" 
  xmlns="http://www.w3.org/2000/svg" style="position:absolute; margin-left: -100%" 
  xmlns:xlink="http://www.w3.org/1999/xlink">
  <g id="users" data-iconmelon="Dripicons:2b284359e7934c3a68a30261eac0011c">
    <g>
      <path d="M12.408,19.143c4.054,0,7.351-3.297,7.351-7.351c0-4.053-3.297-7.351-7.351-7.351c-4.053,0-7.351,3.298-7.351,7.351
		C5.057,15.846,8.354,19.143,12.408,19.143z M12.408,6.986c2.65,0,4.807,2.155,4.807,4.806s-2.156,4.807-4.807,4.807
		s-4.807-2.156-4.807-4.807S9.757,6.986,12.408,6.986z"></path>
      <path d="M15.775,19.416c-0.417-0.133-0.873-0.041-1.207,0.241l-2.161,1.829l-2.161-1.829c-0.334-0.282-0.791-0.374-1.207-0.241
		C6.92,20.089,0,22.574,0,26.286c0,0.703,0.57,1.272,1.272,1.272h22.271c0.703,0,1.272-0.569,1.272-1.272
		C24.816,22.574,17.896,20.089,15.775,19.416z M3.422,25.014c1.21-1.022,3.494-2.17,5.728-2.951l2.436,2.062
		c0.475,0.401,1.169,0.401,1.644,0l2.437-2.062c2.233,0.781,4.518,1.929,5.727,2.951H3.422z"></path>
      <path d="M27.704,19.333c-0.471-0.233-1.043-0.041-1.278,0.431s-0.042,1.045,0.43,1.279c0.778,0.388,2.167,1.283,2.844,2.191h-3.392
		c-0.527,0-0.954,0.428-0.954,0.955c0,0.526,0.427,0.954,0.954,0.954h4.738c0.527,0,0.954-0.428,0.954-0.954
		C32,21.538,28.144,19.551,27.704,19.333z"></path>
      <path d="M22.975,17.705c-0.781,0-1.515-0.304-2.067-0.855c-0.373-0.373-0.977-0.373-1.35-0.001c-0.373,0.373-0.373,0.978,0,1.351
		c0.913,0.912,2.126,1.415,3.417,1.415c2.665,0,4.832-2.168,4.832-4.833c0-2.664-2.167-4.832-4.832-4.832
		c-0.651,0-1.284,0.128-1.881,0.381c-0.485,0.205-0.713,0.765-0.508,1.25s0.766,0.713,1.25,0.508c0.36-0.152,0.744-0.23,1.138-0.23
		c1.612,0,2.923,1.312,2.923,2.924C25.898,16.394,24.586,17.705,22.975,17.705z"></path>
    </g>
  </g>
  <g id="arrow-left" data-iconmelon="Dripicons:1343443effeb28db6f9ad48fdc372632">
    <path d="M30.096,14.096H6.501l7.086-7.086c0.744-0.744,0.744-1.949,0-2.692c-0.743-0.744-1.949-0.744-2.692,0L0.558,14.654
	C0.201,15.011,0,15.495,0,16s0.201,0.989,0.558,1.346l10.337,10.336c0.372,0.372,0.859,0.558,1.347,0.558
	c0.486,0,0.975-0.186,1.346-0.558c0.744-0.743,0.744-1.949,0-2.692l-7.086-7.086h23.595C31.147,17.904,32,17.052,32,16
	C32,14.949,31.147,14.096,30.096,14.096z"></path>
  </g>
  <g id="gear" data-iconmelon="Dripicons:2ec8ef41f49cd62520bcfa8d499782ab">
    <g>
      <path d="M31.67,12.602c-0.122-0.475-0.521-0.826-1.006-0.89l-2.623-0.343c-0.057-0.153-0.097-0.256-0.102-0.268l-0.045-0.107
		c0,0-0.041-0.092-0.105-0.233l1.612-2.098c0.298-0.388,0.331-0.919,0.081-1.34c-0.027-0.047-0.69-1.158-2.169-2.638
		c-1.479-1.479-2.59-2.141-2.636-2.169C24.256,2.268,23.725,2.3,23.337,2.6L21.24,4.211c-0.142-0.064-0.233-0.105-0.233-0.105
		c-0.013-0.005-0.024-0.011-0.038-0.016l-0.098-0.04c0,0-0.094-0.036-0.24-0.09l-0.343-2.624c-0.063-0.485-0.416-0.883-0.89-1.006
		C19.346,0.316,18.091,0,16,0s-3.346,0.316-3.398,0.33c-0.474,0.123-0.826,0.521-0.89,1.006L11.369,3.96
		c-0.151,0.056-0.252,0.095-0.262,0.099l-0.08,0.033c-0.012,0.004-0.021,0.009-0.033,0.014c0,0-0.092,0.041-0.233,0.105L8.663,2.599
		C8.275,2.3,7.744,2.269,7.323,2.517c-0.047,0.028-1.157,0.69-2.638,2.17c-1.478,1.479-2.141,2.59-2.168,2.637
		c-0.25,0.421-0.217,0.952,0.081,1.341l1.612,2.097c-0.064,0.141-0.105,0.233-0.105,0.233l0.006,0.002
		c-0.022,0.042-0.043,0.086-0.061,0.131c0,0-0.036,0.096-0.092,0.242l-2.623,0.343c-0.485,0.063-0.883,0.415-1.006,0.89
		C0.317,12.654,0,13.909,0,16c0,2.092,0.317,3.346,0.33,3.398c0.123,0.474,0.521,0.826,1.006,0.89l2.623,0.343
		c0.057,0.151,0.096,0.253,0.1,0.262l0.033,0.08c0.004,0.012,0.009,0.022,0.014,0.033c0,0,0.041,0.093,0.105,0.233l-1.612,2.098
		c-0.298,0.388-0.331,0.919-0.081,1.341c0.027,0.046,0.69,1.157,2.168,2.636c1.479,1.479,2.592,2.142,2.638,2.169
		c0.421,0.249,0.952,0.217,1.34-0.082l2.098-1.611c0.142,0.064,0.233,0.105,0.233,0.105c0.012,0.004,0.021,0.009,0.033,0.014
		l0.101,0.041c0,0,0.095,0.037,0.241,0.091l0.343,2.624c0.063,0.485,0.416,0.883,0.891,1.006C12.654,31.684,13.909,32,16,32
		s3.346-0.316,3.398-0.33c0.474-0.123,0.826-0.521,0.89-1.006l0.343-2.624c0.152-0.056,0.254-0.096,0.266-0.101l0.109-0.045
		c0,0,0.093-0.041,0.234-0.105l2.097,1.611c0.389,0.299,0.92,0.331,1.341,0.082c0.047-0.027,1.157-0.69,2.637-2.169
		c1.478-1.479,2.141-2.59,2.168-2.636c0.25-0.422,0.217-0.953-0.081-1.341l-1.612-2.098c0.064-0.142,0.105-0.234,0.105-0.234
		c0.005-0.011,0.01-0.021,0.014-0.032l0.041-0.101c0,0,0.037-0.095,0.092-0.241l2.623-0.343c0.485-0.063,0.884-0.416,1.006-0.89
		C31.684,19.346,32,18.092,32,16C32,13.909,31.684,12.654,31.67,12.602z M29.479,18.024l-2.476,0.323
		c-0.453,0.06-0.833,0.37-0.979,0.803c-0.142,0.416-0.304,0.836-0.304,0.836l-0.025,0.062c-0.035,0.08-0.203,0.453-0.379,0.81
		c-0.202,0.41-0.154,0.899,0.125,1.262l1.521,1.979c-0.295,0.383-0.737,0.91-1.345,1.518c-0.608,0.607-1.136,1.051-1.519,1.345
		l-1.979-1.521c-0.363-0.278-0.852-0.326-1.262-0.125c-0.391,0.193-0.799,0.375-0.799,0.375s0.001,0,0.002-0.001l-0.055,0.022
		c0,0-0.432,0.167-0.857,0.312c-0.433,0.146-0.743,0.526-0.803,0.979l-0.323,2.475c-0.479,0.062-1.165,0.123-2.023,0.123
		c-0.86,0-1.547-0.061-2.025-0.123l-0.323-2.475c-0.06-0.453-0.371-0.833-0.803-0.979c-0.416-0.143-0.835-0.304-0.835-0.304
		l-0.063-0.025c-0.08-0.036-0.452-0.203-0.81-0.379c-0.408-0.202-0.898-0.154-1.262,0.124L7.9,26.963
		c-0.383-0.295-0.911-0.737-1.519-1.345c-0.607-0.608-1.05-1.137-1.345-1.519L6.56,22.12c0.278-0.362,0.327-0.852,0.125-1.262
		c-0.179-0.36-0.347-0.735-0.381-0.812l-0.017-0.04C6.284,20,6.12,19.574,5.977,19.151c-0.146-0.433-0.526-0.744-0.979-0.804
		l-2.477-0.323c-0.062-0.479-0.122-1.165-0.122-2.023c0-0.86,0.061-1.547,0.123-2.025l2.476-0.323
		c0.453-0.061,0.833-0.372,0.979-0.805C6.12,12.427,6.285,12,6.287,11.993c0.004-0.009,0.007-0.018,0.011-0.026l0,0
		c0,0,0.188-0.422,0.387-0.825c0.202-0.41,0.153-0.899-0.125-1.262L5.037,7.9c0.295-0.383,0.737-0.91,1.345-1.519
		C6.99,5.774,7.518,5.332,7.9,5.037L9.88,6.56c0.362,0.277,0.852,0.325,1.262,0.124c0.36-0.178,0.736-0.347,0.812-0.38l0.039-0.016
		c0.007-0.003,0.435-0.168,0.857-0.312c0.433-0.146,0.743-0.526,0.803-0.979l0.323-2.476C14.454,2.459,15.141,2.398,16,2.398
		s1.546,0.061,2.024,0.123l0.323,2.476c0.06,0.452,0.371,0.832,0.803,0.979c0.418,0.143,0.84,0.306,0.84,0.306l0,0l0.061,0.023
		c0.084,0.038,0.453,0.205,0.81,0.38c0.409,0.201,0.898,0.153,1.26-0.126l1.98-1.521c0.382,0.295,0.91,0.737,1.518,1.344
		c0.607,0.609,1.05,1.138,1.345,1.52L25.441,9.88c-0.279,0.362-0.327,0.851-0.125,1.261c0.192,0.391,0.374,0.8,0.374,0.8v-0.001
		l0.022,0.053c0.002,0.006,0.167,0.435,0.312,0.857c0.147,0.432,0.526,0.742,0.979,0.803l2.476,0.323
		c0.062,0.479,0.122,1.165,0.122,2.024S29.541,17.546,29.479,18.024z"></path>
      <path d="M16,8.36c-4.213,0-7.64,3.427-7.64,7.64s3.427,7.64,7.64,7.64s7.64-3.427,7.64-7.64S20.213,8.36,16,8.36z M16,21.241
		c-2.89,0-5.241-2.351-5.241-5.241S13.11,10.759,16,10.759c2.891,0,5.241,2.351,5.241,5.241S18.891,21.241,16,21.241z"></path>
    </g>
  </g>
  <g id="user" data-iconmelon="Dripicons:778fc246ecdf87f79a9036c550c2b287">
    <g>
      <path d="M16,19.861c5.169,0,9.374-4.205,9.374-9.374S21.169,1.113,16,1.113s-9.374,4.205-9.374,9.374S10.831,19.861,16,19.861z
		 M16,3.933c3.614,0,6.555,2.94,6.555,6.555s-2.94,6.555-6.555,6.555s-6.555-2.94-6.555-6.555S12.386,3.933,16,3.933z"></path>
      <path d="M20.334,20.722c-0.461-0.146-0.967-0.046-1.337,0.268L16,23.524l-2.998-2.535c-0.37-0.313-0.876-0.414-1.337-0.268
		C9.718,21.34,0,24.667,0,29.478c0,0.778,0.631,1.409,1.41,1.409H30.59c0.778,0,1.41-0.631,1.41-1.409
		C32,24.667,22.282,21.34,20.334,20.722z M3.583,28.067c1.548-1.594,5.17-3.362,8.203-4.415l3.304,2.795
		c0.525,0.444,1.295,0.444,1.82,0l3.304-2.795c3.033,1.053,6.655,2.821,8.203,4.415H3.583z"></path>
    </g>
  </g>
  <g id="signal" data-iconmelon="Dripicons:79154da97fa6cb8c6dc0d70a3599ebb6">
    <g>
      <path d="M25.359,0c-1.381,0-2.5,1.119-2.5,2.5v27c0,1.381,1.119,2.5,2.5,2.5s2.5-1.119,2.5-2.5v-27C27.859,1.119,26.74,0,25.359,0z
		"></path>
      <path d="M16.001,8.909c-1.381,0-2.5,1.119-2.5,2.5V29.5c0,1.381,1.119,2.5,2.5,2.5s2.5-1.119,2.5-2.5V11.409
		C18.501,10.028,17.382,8.909,16.001,8.909z"></path>
      <path d="M6.641,17.82c-1.381,0-2.5,1.119-2.5,2.5v9.18c0,1.381,1.119,2.5,2.5,2.5s2.5-1.119,2.5-2.5v-9.18
		C9.141,18.939,8.021,17.82,6.641,17.82z"></path>
    </g>
  </g>
  <g id="menu" data-iconmelon="Dripicons:7a94fef4485136d7a7fa3ea7105f37b5">
    <g>
      <path d="M2.674,6.713h26.652C30.803,6.713,32,5.517,32,4.04s-1.197-2.674-2.674-2.674H2.674C1.197,1.366,0,2.563,0,4.04
		S1.197,6.713,2.674,6.713z"></path>
      <path d="M29.326,13.326H2.674C1.197,13.326,0,14.523,0,15.999c0,1.477,1.197,2.674,2.674,2.674h26.652
		c1.477,0,2.674-1.197,2.674-2.674C32,14.523,30.803,13.326,29.326,13.326z"></path>
      <path d="M29.326,25.287H2.674C1.197,25.287,0,26.483,0,27.96s1.197,2.674,2.674,2.674h26.652c1.477,0,2.674-1.197,2.674-2.674
		S30.803,25.287,29.326,25.287z"></path>
    </g>
  </g>
  <g id="question" data-iconmelon="Dripicons:72ae2deecdce184098cc98a11df4a02c">
    <g>
      <path d="M15.873,5.96c-5.392,0-6.572,3.971-6.572,5.501c0,0.811,0.657,1.478,1.468,1.478c0.811,0,1.468-0.647,1.468-1.458
		c0.018-0.605,0.332-2.585,3.637-2.585c1.623,0,2.822,0.425,3.563,1.26c0.915,1.03,0.866,2.362,0.803,2.887
		c-0.188,1.559-1.054,2.35-2.575,2.35c-2.694,0-3.259,1.47-3.259,2.703v1.236c0,0.811,0.657,1.468,1.468,1.468
		c0.811,0,1.468-0.657,1.468-1.468v-0.993c0.085-0.006,0.192-0.011,0.323-0.011c2.367,0,5.053-1.296,5.49-4.936
		c0.233-1.941-0.321-3.831-1.522-5.185C20.723,7.182,18.986,5.96,15.873,5.96z"></path>
      <path d="M15.873,22.251c-0.484,0-0.958,0.198-1.299,0.54c-0.341,0.341-0.536,0.814-0.536,1.298c0,0.481,0.194,0.955,0.536,1.296
		c0.345,0.342,0.818,0.539,1.299,0.539s0.954-0.197,1.299-0.539c0.342-0.341,0.536-0.814,0.536-1.296
		c0-0.483-0.194-0.957-0.536-1.298C16.827,22.449,16.357,22.251,15.873,22.251z"></path>
      <path d="M16,0C7.178,0,0,7.178,0,16s7.178,16,16,16s16-7.178,16-16S24.822,0,16,0z M16,29.064C8.796,29.064,2.936,23.203,2.936,16
		C2.936,8.796,8.796,2.936,16,2.936S29.064,8.796,29.064,16C29.064,23.203,23.204,29.064,16,29.064z"></path>
    </g>
  </g>
  <g id="list" data-iconmelon="Dripicons:4b5f066fd7d6a813505df82048fb16d3">
    <g>
      <path d="M10.494,7.059h19.413C31.062,7.059,32,6.12,32,4.965c0-1.157-0.938-2.095-2.094-2.095H10.494
		C9.337,2.87,8.4,3.808,8.4,4.965C8.4,6.12,9.337,7.059,10.494,7.059z"></path>
      <path d="M29.906,13.905H10.494C9.337,13.905,8.4,14.843,8.4,16c0,1.155,0.938,2.094,2.094,2.094h19.413
		C31.062,18.094,32,17.155,32,16C32,14.843,31.062,13.905,29.906,13.905z"></path>
      <path d="M29.906,24.941H10.494c-1.156,0-2.094,0.938-2.094,2.094s0.938,2.095,2.094,2.095h19.413c1.156,0,2.094-0.938,2.094-2.095
		S31.062,24.941,29.906,24.941z"></path>
      <path d="M2.269,2.696c-0.6,0-1.183,0.241-1.605,0.664C0.241,3.782,0,4.369,0,4.965c0,0.598,0.241,1.181,0.663,1.603
		s1.005,0.666,1.605,0.666c0.597,0,1.18-0.244,1.602-0.666s0.666-1.005,0.666-1.603c0-0.596-0.244-1.183-0.666-1.604
		C3.448,2.938,2.865,2.696,2.269,2.696z"></path>
      <path d="M2.269,13.731c-0.6,0-1.183,0.241-1.605,0.663C0.241,14.817,0,15.403,0,16s0.241,1.18,0.663,1.603
		c0.422,0.422,1.005,0.666,1.605,0.666c0.597,0,1.18-0.244,1.602-0.666C4.293,17.18,4.537,16.597,4.537,16s-0.244-1.183-0.666-1.605
		C3.448,13.973,2.865,13.731,2.269,13.731z"></path>
      <path d="M2.269,24.767c-0.6,0-1.183,0.244-1.605,0.663C0.241,25.852,0,26.438,0,27.035c0,0.596,0.241,1.183,0.663,1.604
		c0.422,0.423,1.005,0.664,1.605,0.664c0.597,0,1.18-0.241,1.602-0.664c0.422-0.422,0.666-1.009,0.666-1.604
		c0-0.598-0.244-1.181-0.666-1.605C3.448,25.011,2.865,24.767,2.269,24.767z"></path>
    </g>
  </g>
  <g id="grid" data-iconmelon="80 icons pack:0d75f309b05c351fa5c3d5b96e847f08">
    <g>
      <g>
        <g>
          <path d="M9.205,19.287c0,0.726-0.588,1.315-1.314,1.315H1.314C0.59,20.603,0,20.013,0,19.287v-6.574
				c0-0.728,0.59-1.315,1.314-1.315h6.576c0.727,0,1.314,0.588,1.314,1.315V19.287z"></path>
        </g>
      </g>
      <g>
        <g>
          <path d="M20.604,19.287c0,0.726-0.59,1.315-1.315,1.315h-6.575c-0.727,0-1.314-0.59-1.314-1.315v-6.574
				c0-0.728,0.588-1.315,1.314-1.315h6.575c0.726,0,1.315,0.588,1.315,1.315V19.287z"></path>
        </g>
      </g>
      <g>
        <g>
          <path d="M9.205,30.685C9.205,31.41,8.617,32,7.891,32H1.314C0.59,32,0,31.41,0,30.685v-6.575c0-0.727,0.59-1.314,1.314-1.314
				h6.576c0.727,0,1.314,0.588,1.314,1.314V30.685z"></path>
        </g>
      </g>
      <g>
        <g>
          <path d="M20.604,30.685c0,0.726-0.59,1.315-1.315,1.315h-6.575c-0.727,0-1.314-0.59-1.314-1.315v-6.575
				c0-0.727,0.588-1.314,1.314-1.314h6.575c0.726,0,1.315,0.588,1.315,1.314V30.685z"></path>
        </g>
      </g>
      <g>
        <g>
          <path d="M32,19.287c0,0.726-0.589,1.315-1.314,1.315h-6.576c-0.727,0-1.314-0.59-1.314-1.315v-6.574
				c0-0.728,0.588-1.315,1.314-1.315h6.576c0.726,0,1.314,0.588,1.314,1.315V19.287z"></path>
        </g>
      </g>
      <g>
        <g>
          <path d="M32,30.685C32,31.41,31.411,32,30.686,32h-6.576c-0.727,0-1.314-0.59-1.314-1.315v-6.575
				c0-0.727,0.588-1.314,1.314-1.314h6.576c0.726,0,1.314,0.588,1.314,1.314V30.685z"></path>
        </g>
      </g>
      <g>
        <g>
          <path d="M9.205,7.891c0,0.726-0.588,1.314-1.314,1.314H1.314C0.59,9.205,0,8.616,0,7.891V1.315C0,0.589,0.59,0,1.314,0h6.576
				c0.727,0,1.314,0.589,1.314,1.315V7.891z"></path>
        </g>
      </g>
      <g>
        <g>
          <path d="M20.604,7.891c0,0.726-0.59,1.314-1.315,1.314h-6.575c-0.727,0-1.314-0.589-1.314-1.314V1.315
				C11.398,0.589,11.986,0,12.713,0h6.575c0.726,0,1.315,0.589,1.315,1.315V7.891z"></path>
        </g>
      </g>
      <g>
        <g>
          <path d="M32,7.891c0,0.726-0.589,1.314-1.314,1.314h-6.576c-0.727,0-1.314-0.589-1.314-1.314V1.315
				C22.795,0.589,23.383,0,24.109,0h6.576C31.411,0,32,0.589,32,1.315V7.891z"></path>
        </g>
      </g>
    </g>
  </g>
    <g id="upload" data-iconmelon="Dripicons:8bb976ee07e40ed714103f245f02085f">
      <g>
        <path d="M29.779,18.742c-0.991,0-1.794,0.803-1.794,1.794v7.877H4.016v-7.877c0-0.991-0.803-1.794-1.794-1.794
  		s-1.794,0.803-1.794,1.794v9.67C0.428,31.197,1.23,32,2.222,32h27.558c0.99,0,1.794-0.803,1.794-1.794v-9.67
  		C31.573,19.545,30.77,18.742,29.779,18.742z"></path>
        <path d="M10.036,10.295l4.171-4.171v15.396c0,0.991,0.803,1.794,1.794,1.794c0.99,0,1.793-0.803,1.793-1.794V6.124l4.171,4.171
  		c0.35,0.351,0.809,0.525,1.268,0.525s0.919-0.175,1.269-0.525c0.7-0.7,0.7-1.837,0-2.536l-7.232-7.233
  		C16.933,0.189,16.477,0,16.001,0s-0.933,0.189-1.269,0.525L7.5,7.759c-0.701,0.699-0.701,1.836,0,2.536
  		C8.199,10.995,9.336,10.995,10.036,10.295z"></path>
      </g>
    </g>
</svg>
